<svg xmlns="http://www.w3.org/2000/svg" viewBox="0 0 96 96" role="img" aria-label="Story Forge mark">
  <rect width="96" height="96" rx="18" fill="#171614"/>
  <path d="M23 68h50" stroke="#c8892d" stroke-width="5" stroke-linecap="round"/>
  <path d="M30 28h36c4 0 7 3 7 7v27H30c-4 0-7-3-7-7V35c0-4 3-7 7-7Z" fill="#fbfaf7"/>
  <path d="M32 38h28M32 48h20M32 58h30" stroke="#8f2f3f" stroke-width="4" stroke-linecap="round"/>
  <path d="M68 26c-1 10-7 14-17 15 9 3 13 9 12 18 7-5 11-11 11-18 0-6-2-11-6-15Z" fill="#1f766d"/>
</svg>
